<?xml version="1.0" encoding="utf-8"?>
<!-- Generator: Adobe Illustrator 28.1.0, SVG Export Plug-In . SVG Version: 6.00 Build 0)  -->
<svg version="1.1" id="Layer_1" xmlns="http://www.w3.org/2000/svg" xmlns:xlink="http://www.w3.org/1999/xlink" x="0px" y="0px"
	 viewBox="0 0 1000 1000" style="enable-background:new 0 0 1000 1000;" xml:space="preserve">
<path d="M999.9,499c-0.3-135.8-0.9-152.8-3.4-206.1s-11-89.5-23.5-121.3c-12.8-32.9-30-60.7-57.8-88.4s-55.7-44.8-88.7-57.5
	C794.8,13.4,758.4,5,705.2,2.7S634.8-0.2,499,0.1S346.2,0.9,292.9,3.5C239.7,6,203.4,14.5,171.6,27c-32.9,12.8-60.7,30-88.5,57.8
	c-27.7,27.8-44.8,55.7-57.5,88.6C13.4,205.2,5,241.6,2.7,294.8C0.3,348.1-0.2,365.2,0.1,501s0.9,152.8,3.4,206.1
	c2.5,53.2,11,89.5,23.5,121.3c12.8,32.9,30,60.7,57.8,88.5s55.7,44.8,88.7,57.5c31.8,12.3,68.2,20.7,121.4,23s70.4,2.9,206.1,2.6
	s152.8-0.9,206.2-3.4s89.5-11,121.2-23.5c32.9-12.9,60.7-30,88.5-57.8s44.8-55.7,57.5-88.7c12.3-31.8,20.7-68.2,23-121.3
	C999.6,651.8,1000.2,634.8,999.9,499z M907.3,701.3c-2.1,48.8-10.2,75.2-17,92.9c-9,23.3-19.8,40-37.3,57.6s-34.1,28.4-57.4,37.5
	c-17.6,6.9-44.1,15.1-92.8,17.4c-52.7,2.5-68.5,3-202,3.3s-149.3-0.2-202-2.5h0c-48.8-2.1-75.2-10.2-92.9-17
	c-23.4-9-40-19.9-57.6-37.3s-28.4-34.1-37.5-57.4c-6.8-17.6-15.1-44.1-17.4-92.8c-2.5-52.7-3-68.5-3.3-202
	c-0.3-133.5,0.2-149.3,2.5-202c2.1-48.7,10.2-75.2,17-92.8c9-23.4,19.8-40,37.3-57.6c17.4-17.6,34.1-28.4,57.4-37.5
	c17.6-6.9,44.1-15.1,92.8-17.4c52.7-2.5,68.5-3,202-3.3c133.5-0.3,149.3,0.2,202.1,2.5c48.7,2.1,75.2,10.2,92.8,17
	c23.4,9,40,19.8,57.6,37.3c17.6,17.5,28.4,34.1,37.5,57.5c6.9,17.6,15.1,44,17.4,92.8c2.5,52.7,3.1,68.5,3.3,202
	S909.6,648.6,907.3,701.3z M826.4,232.6c0.1,33.1-26.8,60-59.9,60.1s-60-26.8-60.1-59.9c-0.1-33.1,26.8-60,59.9-60.1c0,0,0,0,0,0
	C799.4,172.6,826.3,199.4,826.4,232.6z M499.5,243.3C357.7,243.5,243,358.7,243.3,500.5c0.3,141.8,115.4,256.5,257.2,256.2
	S757,641.3,756.8,499.5S641.3,243,499.5,243.3z M500.3,666.7c-92,0.2-166.8-74.3-167-166.3c0,0,0,0,0,0
	c-0.2-92,74.3-166.8,166.3-167s166.8,74.3,167,166.3C666.9,591.7,592.4,666.5,500.3,666.7z"/>
</svg>
