<?xml version="1.0" encoding="utf-8"?>
<svg version="1.1" id="Layer_1" xmlns="http://www.w3.org/2000/svg" xmlns:xlink="http://www.w3.org/1999/xlink" x="0px" y="0px"
	 viewBox="0 0 72 72" style="enable-background:new 0 0 72 72;" xml:space="preserve">
<style type="text/css">
	.st0{fill:#FFFFFF;}
</style>
<path class="st0" d="M64,0H8C3.6,0,0,3.6,0,8v56c0,4.4,3.6,8,8,8h56c4.4,0,8-3.6,8-8V8C72,3.6,68.4,0,64,0z M21.8,62H11V27.3h10.7
	V62z M16.3,22.8c-3.5,0-6.3-2.9-6.3-6.4c0-3.5,2.8-6.4,6.3-6.4c3.5,0,6.3,2.9,6.3,6.4C22.7,19.9,19.9,22.8,16.3,22.8z M62,62H51.3
	V43.8c0-5-1.9-7.8-5.8-7.8c-4.3,0-6.5,2.9-6.5,7.8V62H28.6V27.3h10.3V32c0,0,3.1-5.7,10.5-5.7c7.4,0,12.6,4.5,12.6,13.8V62z"/>
</svg>
